<svg width="25" height="25" viewBox="0 0 25 25" fill="none" xmlns="http://www.w3.org/2000/svg">
<path d="M2.75005 7.82715H1.05774V11.2118H2.75005M2.75005 7.82715L6.13466 1.05792M2.75005 7.82715H21.3654M21.3654 7.82715H23.0577V11.2118H21.3654M21.3654 7.82715L17.9808 1.05792M6.98082 15.4425V18.8272M17.1347 15.4425V18.8272M12.0577 15.4425V18.8272M2.75005 11.2118H21.3654M2.75005 11.2118C2.75005 11.2118 2.75005 19.6733 2.75005 21.3656C2.75005 22.3002 3.50772 23.0579 4.44235 23.0579C6.13466 23.0579 17.9808 23.0579 19.6731 23.0579C20.6078 23.0579 21.3654 22.2118 21.3654 21.3656C21.3654 19.6733 21.3654 11.2118 21.3654 11.2118" stroke="#111111" stroke-width="2.11538" stroke-linecap="round" stroke-linejoin="round"/>
</svg>
