<svg width="184" height="23" viewBox="0 0 184 23" xmlns="http://www.w3.org/2000/svg">
  <path d="M15.7013 4.71986C-2.37012 -7.67776 -2.76301 30.6484 15.7013 17.6841M43.4673 22.2755C43.3197 17.0752 43.3854 3.14231 44.0941 2.78572C44.98 2.33997 50.4544 16.2638 52.2262 18.4925C53.9981 20.7213 59.8084 2 61.0853 2C61.9768 2 61.5 22.7212 61.5 22.7212M68.7297 22.7212C68.2867 15.1436 69.1726 9.13183 68.7297 6.90315M68.7297 0.5V5M103.038 6.01166C96.3932 -2.90323 86.6482 9.57761 95.5073 10.9148C110.568 13.1881 100.38 26.1787 92.8496 18.1553M132.958 0.891444C132.958 2.9812 132.958 7.99644 132.958 10.9148M132.958 22.8297C132.958 21.9934 132.958 15.0514 132.958 10.9148M132.958 10.9148C136.649 11.0634 144.918 10.9148 144.918 10.9148M144.918 10.9148C144.918 10.9148 145.508 3.12019 145.361 0.445721M144.918 10.9148L145.804 22.8297M171.938 22.7212C171.938 20.7074 171.914 15.9201 171.849 13.1436M171.849 13.1436C171.737 8.34031 171.501 3.56936 171.052 2.89145C170.166 1.55421 181.657 2.88112 181.569 7.79464C181.485 12.496 176.456 12.4007 171.849 13.1436ZM87.0912 4.33446C70 -5 71.3799 28 87.5227 18.4699M126.757 6.01166C120.112 -2.90323 110.367 9.57761 119.226 10.9148C134.287 13.1881 124.099 26.1787 116.569 18.1553M28.4346 20.7212C18.8693 20.7212 13.3693 4.28502 28.4346 2.78572C43.5 1.28641 38 20.7212 28.4346 20.7212ZM158.649 20.4699C152.596 17.2011 144.918 3.66426 158.649 2.327C169.356 1.2843 167.509 24.0358 158.649 20.4699Z"
    fill="none"
    stroke="currentColor"
    stroke-width="4"
    stroke-linejoin="round"/>
</svg>
